# xmcd
#
# Track frame offsets:
#	150
#	12598
#	31278
#	38615
#	48525
#	65267
#	90441
#	104032
#	118572
#	135452
#	141975
#	154532
#	162705
#	181505
#	199645
#
# Disc length: 2807 seconds
#
# Revision: 1
# Processed by: cddbd v1.5.2PL0 Copyright (c) Steve Scherf et al.
# Submitted via: audiograbber 1.83.01
#
DISCID=c40af50f
DTITLE=Andy Salvanos - Closer
DYEAR=2007
DGENRE=Instrumental
TTITLE0=Juggler's Song
TTITLE1=Closer
TTITLE2=Smiles
TTITLE3=Long black lunch
TTITLE4=Running water
TTITLE5=Mind your matter
TTITLE6=Inconsequential
TTITLE7=On my beach
TTITLE8=Chimborazo
TTITLE9=Afternoon bass
TTITLE10=Cry me to sleep
TTITLE11=Free range eggs
TTITLE12=Waltz for Beatrix
TTITLE13=Finding Vini Reilly
TTITLE14=Tranquility
EXTD=
EXTT0=
EXTT1=
EXTT2=
EXTT3=
EXTT4=
EXTT5=
EXTT6=
EXTT7=
EXTT8=
EXTT9=
EXTT10=
EXTT11=
EXTT12=
EXTT13=
EXTT14=
PLAYORDER=
